<svg width="100" height="36" viewBox="0 0 147 43" fill="none" xmlns="http://www.w3.org/2000/svg">
    <path d="M0 15.8265C0 5.70121 6.90017 0.594774 14.5992 0.594774C21.709 0.594774 27.0947 4.80927 27.8936 10.9757H22.0885C21.6694 7.70061 18.5535 5.44531 14.5992 5.44531C9.46661 5.44531 5.59524 9.06032 5.59524 15.8265C5.59524 22.5924 9.46661 26.1672 14.5992 26.1672C18.6368 26.1672 21.7524 23.9119 22.2585 20.677H27.8141C27.2248 26.8471 21.8391 31.0581 14.6028 31.0581C6.77366 31.0581 0 25.9517 0 15.8265Z" fill="#262626"/>
    <path d="M97.3696 32.6188H103.33C110.439 32.6188 115.727 36.8336 116.526 43H110.923C110.505 39.7249 107.283 37.7071 103.33 37.7071H97.3696V32.6188Z" fill="#262626"/>
    <path d="M29.4153 19.9971C29.4153 13.615 34.0419 8.93249 40.5229 8.93249C46.9605 8.93249 51.5871 13.6114 51.5871 19.9971C51.5871 26.3829 46.9605 31.0618 40.5229 31.0618C34.0419 31.0582 29.4153 26.3793 29.4153 19.9971ZM46.3712 19.9971C46.3712 16.1262 44.0145 13.4431 40.5229 13.4431C36.9879 13.4431 34.6312 16.1226 34.6312 19.9971C34.6312 23.8681 36.9879 26.5473 40.5229 26.5473C44.0145 26.5473 46.3712 23.8681 46.3712 19.9971Z" fill="#262626"/>
    <path d="M54.5364 0.0829697H59.669V30.7182H54.5364V0.0829697Z" fill="#262626"/>
    <path d="M64.0466 0.0829697H69.1793V30.7182H64.0466V0.0829697Z" fill="#262626"/>
    <path d="M120.328 9.27244H125.506V30.7182H120.328V9.27244Z" fill="#262626"/>
    <path d="M117.611 9.27608C117.611 9.27608 115.189 9.20297 113.899 9.84627C112.832 10.3799 112.409 11.3888 112.249 12.2626C110.279 10.1826 107.445 8.92889 104.127 8.92889C97.6464 8.92889 93.0205 13.6077 93.0205 19.9935C93.0205 26.3793 97.6464 31.0582 104.127 31.0582C110.565 31.0582 115.191 26.3793 115.191 19.9935C115.191 18.7433 115.011 17.5591 114.671 16.4625C114.43 15.6766 115.052 14.8871 115.864 14.8871H117.607V9.27608H117.611ZM104.127 26.5473C100.593 26.5473 98.2362 23.8681 98.2362 19.9972C98.2362 16.1262 100.593 13.4431 104.127 13.4431C107.621 13.4431 109.976 16.1226 109.976 19.9972C109.976 23.8681 107.621 26.5473 104.127 26.5473Z" fill="#262626"/>
    <path d="M81.2986 8.81557C76.3357 8.81557 72.9127 11.8897 72.3488 15.8885H77.0117C77.3585 14.1707 78.9093 12.7524 81.3816 12.7524C83.9623 12.7524 85.7811 14.1632 85.7811 16.2613V16.3454C85.7811 17.2007 85.2746 17.7162 84.3855 17.7162H80.2829C75.2079 17.7162 72.2874 20.2821 72.2874 24.6029C72.2874 28.2801 75.2079 31.0618 79.3503 31.0618C82.3978 31.0618 84.8919 29.6508 85.7811 27.5124V30.7219H90.6884V16.7293C90.6884 11.981 86.8391 8.81557 81.2986 8.81557ZM85.7834 21.6055C85.7834 24.855 83.879 27.1652 80.5791 27.1652C78.7177 27.1652 77.3225 26.0101 77.3225 24.3836C77.3225 22.373 78.5478 21.1741 81.0021 21.1741H85.7834V21.6055Z" fill="#262626"/>
    <path d="M137.538 8.93249C132.601 8.93249 129.195 11.9919 128.635 15.9652H133.272C133.619 14.2583 135.158 12.8436 137.621 12.8436C140.187 12.8436 141.997 14.2474 141.997 16.3344V16.4185C141.997 17.2702 141.493 17.782 140.61 17.782H136.529C131.48 17.782 128.576 20.3334 128.576 24.6319C128.576 28.291 131.48 31.0581 135.604 31.0581C138.634 31.0581 141.117 29.6544 141.997 27.5271V30.7182H146.877V16.8061C146.882 12.0797 143.05 8.93249 137.538 8.93249ZM141.997 21.6566C141.997 24.8915 140.104 27.187 136.822 27.187C134.971 27.187 133.583 26.0394 133.583 24.4201C133.583 22.4205 134.805 21.229 137.245 21.229H141.997V21.6566Z" fill="#262626"/>
    <path d="M125.506 0.525311H120.328V5.9131H125.506V0.525311Z" fill="#262626"/>
</svg>
