<svg width="147" height="43" viewBox="0 0 147 43" fill="none" xmlns="http://www.w3.org/2000/svg">
    <path d="M0 15C0 5 6 0 14 0C21 0 27 4 27 10H22C21 7 18 5 14 5C9 5 5 9 5 15C5 22 9 26 14 26C18 26 21 23 22 20H27C27 26 21 31 14 31C6 31 0 25 0 15Z" fill="#262626"/>
    <path d="M97 32H103C110 32 115 36 116 43H110C110 39 107 37 103 37H97V32Z" fill="#262626"/>
    <path d="M29 19C29 13 34 8 40 8C46 8 51 13 51 19C51 26 46 31 40 31C34 31 29 26 29 19ZM46 19C46 16 44 13 40 13C36 13 34 16 34 19C34 23 36 26 40 26C44 26 46 23 46 19Z" fill="#262626"/>
    <path d="M54 0H59V30H54V0Z" fill="#262626"/>
    <path d="M64 0H69V30H64V0Z" fill="#262626"/>
    <path d="M120 9H125V30H120V9Z" fill="#262626"/>
    <path d="M117 9C117 9 115 9 113 9C112 10 112 11 112 12C110 10 107 8 104 8C97 8 93 13 93 19C93 26 97 31 104 31C110 31 115 26 115 19C115 18 115 17 114 16C114 15 115 14 115 14H117V9H117ZM104 26C100 26 98 23 98 19C98 16 100 13 104 13C107 13 109 16 109 19C109 23 107 26 104 26Z" fill="#262626"/>
    <path d="M81 8C76 8 72 11 72 15H77C77 14 78 12 81 12C83 12 85 14 85 16V16C85 17 85 17 84 17H80C75 17 72 20 72 24C72 28 75 31 79 31C82 31 84 29 85 27V30H90V16C90 11 86 8 81 8ZM85 21C85 24 83 27 80 27C78 27 77 26 77 24C77 22 78 21 81 21H85V21Z" fill="#262626"/>
    <path d="M137 8C132 8 129 11 128 15H133C133 14 135 12 137 12C140 12 141 14 141 16V16C141 17 141 17 140 17H136C131 17 128 20 128 24C128 28 131 31 135 31C138 31 141 29 141 27V30H146V16C146 12 143 8 137 8ZM141 21C141 24 140 27 136 27C134 27 133 26 133 24C133 22 134 21 137 21H141V21Z" fill="#262626"/>
    <path d="M125 0H120V5H125V0Z" fill="#262626"/>
</svg>
