<svg width="52" height="52" viewBox="0 0 52 52" fill="none" xmlns="http://www.w3.org/2000/svg">
    <g clip-path="url(#clip0)">
        <path d="M38.4 0.400024H12.8C5.73076 0.400024 0 6.13078 0 13.2V38.8C0 45.8693 5.73076 51.6 12.8 51.6H38.4C45.4693 51.6 51.2 45.8693 51.2 38.8V13.2C51.2 6.13078 45.4693 0.400024 38.4 0.400024Z" fill="white"/>
        <path d="M18.1335 22.8011H13.8668C13.2777 22.8011 12.8002 23.2786 12.8002 23.8678V28.1344C12.8002 28.7235 13.2777 29.2011 13.8668 29.2011H18.1335C18.7226 29.2011 19.2002 28.7235 19.2002 28.1344V23.8678C19.2002 23.2786 18.7226 22.8011 18.1335 22.8011Z" fill="#656566"/>
        <path d="M18.1335 22.8011H13.8668C13.2777 22.8011 12.8002 23.2786 12.8002 23.8678V28.1344C12.8002 28.7235 13.2777 29.2011 13.8668 29.2011H18.1335C18.7226 29.2011 19.2002 28.7235 19.2002 28.1344V23.8678C19.2002 23.2786 18.7226 22.8011 18.1335 22.8011Z" fill="#656566"/>
        <path d="M18.1335 32.4011H13.8668C13.2777 32.4011 12.8002 32.8786 12.8002 33.4677V37.7344C12.8002 38.3235 13.2777 38.8011 13.8668 38.8011H18.1335C18.7226 38.8011 19.2002 38.3235 19.2002 37.7344V33.4677C19.2002 32.8786 18.7226 32.4011 18.1335 32.4011Z" fill="#979799"/>
        <path d="M27.7334 13.2H23.4667C22.8776 13.2 22.4 13.6776 22.4 14.2667V18.5333C22.4 19.1224 22.8776 19.6 23.4667 19.6H27.7334C28.3225 19.6 28.8 19.1224 28.8 18.5333V14.2667C28.8 13.6776 28.3225 13.2 27.7334 13.2Z" fill="black"/>
        <path d="M27.7336 32.4011H23.4669C22.8778 32.4011 22.4003 32.8786 22.4003 33.4677V37.7344C22.4003 38.3235 22.8778 38.8011 23.4669 38.8011H27.7336C28.3227 38.8011 28.8003 38.3235 28.8003 37.7344V33.4677C28.8003 32.8786 28.3227 32.4011 27.7336 32.4011Z" fill="#979799"/>
        <path d="M37.3333 13.2H33.0667C32.4776 13.2 32 13.6776 32 14.2667V18.5333C32 19.1224 32.4776 19.6 33.0667 19.6H37.3333C37.9224 19.6 38.4 19.1224 38.4 18.5333V14.2667C38.4 13.6776 37.9224 13.2 37.3333 13.2Z" fill="black"/>
        <path d="M37.3336 22.8011H33.0669C32.4778 22.8011 32.0002 23.2786 32.0002 23.8678V28.1344C32.0002 28.7235 32.4778 29.2011 33.0669 29.2011H37.3336C37.9227 29.2011 38.4002 28.7235 38.4002 28.1344V23.8678C38.4002 23.2786 37.9227 22.8011 37.3336 22.8011Z" fill="#656566"/>
    </g>
    <defs>
        <clipPath id="clip0">
            <rect width="51.2" height="51.2" fill="white" transform="translate(0 0.400024)"/>
        </clipPath>
    </defs>
</svg>
