<svg version="1.1"
     id="svg25"
     xmlns="http://www.w3.org/2000/svg" x="0px" y="0px" width="52px" height="52px"
     viewBox="0 0 52 52" style="enable-background:new 0 0 52 52;" xml:space="preserve">
<style type="text/css">
	.st1{fill:#FFFFFF;}
	.st2{fill:#656566;}
	.st3{fill:#979799;}
</style>

    <g id="g18" class="st0">
		<path id="path2" class="st1" d="M38.4,0.4H12.8C5.7,0.4,0,6.1,0,13.2v25.6c0,7.1,5.7,12.8,12.8,12.8h25.6
			c7.1,0,12.8-5.7,12.8-12.8V13.2C51.2,6.1,45.5,0.4,38.4,0.4z"/>
        <path id="path4" class="st2" d="M18.1,22.8h-4.3c-0.6,0-1.1,0.5-1.1,1.1v4.3c0,0.6,0.5,1.1,1.1,1.1h4.3c0.6,0,1.1-0.5,1.1-1.1
			v-4.3C19.2,23.3,18.7,22.8,18.1,22.8z"/>
        <path id="path6" class="st2" d="M18.1,22.8h-4.3c-0.6,0-1.1,0.5-1.1,1.1v4.3c0,0.6,0.5,1.1,1.1,1.1h4.3c0.6,0,1.1-0.5,1.1-1.1
			v-4.3C19.2,23.3,18.7,22.8,18.1,22.8z"/>
        <path id="path8" class="st3" d="M18.1,32.4h-4.3c-0.6,0-1.1,0.5-1.1,1.1v4.3c0,0.6,0.5,1.1,1.1,1.1h4.3c0.6,0,1.1-0.5,1.1-1.1
			v-4.3C19.2,32.9,18.7,32.4,18.1,32.4z"/>
        <path id="path10" d="M27.7,13.2h-4.3c-0.6,0-1.1,0.5-1.1,1.1v4.3c0,0.6,0.5,1.1,1.1,1.1h4.3c0.6,0,1.1-0.5,1.1-1.1v-4.3
			C28.8,13.7,28.3,13.2,27.7,13.2z"/>
        <path id="path12" class="st3" d="M27.7,32.4h-4.3c-0.6,0-1.1,0.5-1.1,1.1v4.3c0,0.6,0.5,1.1,1.1,1.1h4.3c0.6,0,1.1-0.5,1.1-1.1
			v-4.3C28.8,32.9,28.3,32.4,27.7,32.4z"/>
        <path id="path14" d="M37.3,13.2h-4.3c-0.6,0-1.1,0.5-1.1,1.1v4.3c0,0.6,0.5,1.1,1.1,1.1h4.3c0.6,0,1.1-0.5,1.1-1.1v-4.3
			C38.4,13.7,37.9,13.2,37.3,13.2z"/>
        <path id="path16" class="st2" d="M37.3,22.8h-4.3c-0.6,0-1.1,0.5-1.1,1.1v4.3c0,0.6,0.5,1.1,1.1,1.1h4.3c0.6,0,1.1-0.5,1.1-1.1
			v-4.3C38.4,23.3,37.9,22.8,37.3,22.8z"/>
	</g>

</svg>
