<svg width="1em" height="1em" viewBox="0 0 26 23" fill="none" xmlns="http://www.w3.org/2000/svg">
    <path d="M25.5 9.225V20.5C25.5 21.875 24.375 23 23 23H3C1.625 23 0.5 21.875 0.5 20.5L0.5125 5.5C0.5125 4.125 1.625 3 3 3H15.625C15.55 3.4 15.5 3.825 15.5 4.25C15.5 4.675 15.55 5.1 15.625 5.5H3L13 11.75L17.5875 8.8875C18.175 9.425 18.8625 9.8375 19.625 10.1125L13 14.25L3 8V20.5H23V10.375C23.925 10.1875 24.775 9.775 25.5 9.225ZM18 4.25C18 6.325 19.675 8 21.75 8C23.825 8 25.5 6.325 25.5 4.25C25.5 2.175 23.825 0.5 21.75 0.5C19.675 0.5 18 2.175 18 4.25Z" fill="#777"/>
</svg>
